<svg xmlns="http://www.w3.org/2000/svg" width="500.784" height="444" viewBox="0 0 500.784 444">
  <defs>
    <style>
      .cls-1, .cls-11 {
        fill: #a77248;
      }

      .cls-1, .cls-14 {
        font-size: 75px;
        font-family: BodoniMT, Bodoni MT;
      }

      .cls-2 {
        fill: #892f2f;
      }

      .cls-14, .cls-3 {
        fill: #f6c4a5;
      }

      .cls-10, .cls-4 {
        fill: #f4b58e;
      }

      .cls-5 {
        fill: rgba(0,0,0,0);
      }

      .cls-6, .cls-7 {
        fill: #99683f;
      }

      .cls-6 {
        stroke: #99683f;
      }

      .cls-8, .cls-9 {
        fill: #7e553d;
      }

      .cls-9 {
        stroke: #7e553d;
      }

      .cls-10 {
        stroke: #f4b58e;
      }

      .cls-11 {
        stroke: #a77248;
      }

      .cls-12 {
        fill: #f8d3bb;
      }

      .cls-13 {
        fill: none;
      }
    </style>
  </defs>
  <g id="Group_7" data-name="Group 7" transform="translate(-0.5 -28)">
    <text id="COMMUNITY" class="cls-1" transform="translate(13 97)"><tspan x="0" y="0">COMMUNITY</tspan></text>
    <g id="Group_6" data-name="Group 6">
      <rect id="Rectangle_2" data-name="Rectangle 2" class="cls-2" width="265" height="265" rx="20" transform="translate(118 128)"/>
      <g id="Group_5" data-name="Group 5" transform="translate(0.892 64.845)">
        <g id="Group_1" data-name="Group 1">
          <path id="Path_1" data-name="Path 1" class="cls-3" d="M147.067,265.318c-7.571-.42-12.92-8.978-11.4-16.221-3.635.2-6.422,1.113-6.847,2.679l-.331.736c-3.373,14.672,20.216,24.207,26.5,10.971A21.383,21.383,0,0,1,147.067,265.318Z"/>
          <path id="Path_2" data-name="Path 2" class="cls-4" d="M155.574,262.054c3.248-9.521-10.928-13.444-19.9-12.957-1.523,7.243,3.826,15.8,11.4,16.221a21.383,21.383,0,0,0,7.924-1.835A13.484,13.484,0,0,0,155.574,262.054Z"/>
        </g>
        <g id="Group_2" data-name="Group 2">
          <path id="Path_3" data-name="Path 3" class="cls-5" d="M273.324,239.723l.3.31Z"/>
          <path id="Path_4" data-name="Path 4" class="cls-5" d="M262.036,228.971q.2.161.4.329Q262.234,229.132,262.036,228.971Z"/>
          <path id="Path_5" data-name="Path 5" class="cls-5" d="M278.709,245.225l.122.118Z"/>
          <path id="Path_6" data-name="Path 6" class="cls-5" d="M277.942,244.467l-.069-.07Z"/>
          <path id="Path_7" data-name="Path 7" class="cls-5" d="M279.055,245.553l.092.085Z"/>
          <path id="Path_8" data-name="Path 8" class="cls-5" d="M280.724,204.936c.1.027.192.049.3.091C280.916,204.985,280.823,204.963,280.724,204.936Z"/>
          <path id="Path_9" data-name="Path 9" class="cls-5" d="M276.439,151.943c3.981,3.023,7.921,6.282,11.838,9.7,1.172,1.022,2.339,2.077,3.508,3.124A119.142,119.142,0,0,0,275.467,151C275.8,151.307,276.118,151.624,276.439,151.943Z"/>
          <path id="Path_10" data-name="Path 10" class="cls-5" d="M257.71,226.364a2.29,2.29,0,0,1,.287.062A2.29,2.29,0,0,0,257.71,226.364Z"/>
          <path id="Path_11" data-name="Path 11" class="cls-5" d="M261.33,228.414c.126.1.254.2.383.3C261.584,228.61,261.456,228.511,261.33,228.414Z"/>
          <path id="Path_12" data-name="Path 12" class="cls-5" d="M280.1,204.857a1.133,1.133,0,0,1,.4.015A1.11,1.11,0,0,0,280.1,204.857Z"/>
          <path id="Path_13" data-name="Path 13" class="cls-5" d="M276.629,243.128l.17.175Z"/>
          <path id="Path_14" data-name="Path 14" class="cls-5" d="M270.815,289.6c.32.32.646.632.963.955C271.461,290.231,271.135,289.917,270.815,289.6Z"/>
          <path id="Path_15" data-name="Path 15" class="cls-5" d="M276.039,242.521l.115.119Z"/>
          <path id="Path_16" data-name="Path 16" class="cls-5" d="M274.028,240.446l.323.333Z"/>
          <path id="Path_17" data-name="Path 17" class="cls-5" d="M272.562,238.942l.32.327Z"/>
          <path id="Path_18" data-name="Path 18" class="cls-5" d="M267.991,286.85c-.088-.082-.17-.169-.258-.251l-.034-.02Z"/>
          <path id="Path_19" data-name="Path 19" class="cls-5" d="M265.382,231.891q.227.208.454.421Q265.608,232.1,265.382,231.891Z"/>
          <path id="Path_20" data-name="Path 20" class="cls-5" d="M278.314,244.839l.129.127Z"/>
          <path id="Path_21" data-name="Path 21" class="cls-5" d="M257.269,226.357a1.229,1.229,0,0,1,.329-.008A1.229,1.229,0,0,0,257.269,226.357Z"/>
          <path id="Path_22" data-name="Path 22" class="cls-5" d="M277.261,243.776l.1.1Z"/>
          <path id="Path_23" data-name="Path 23" class="cls-5" d="M270.632,236.984q.276.276.547.552C271,237.352,270.816,237.169,270.632,236.984Z"/>
          <path id="Path_24" data-name="Path 24" class="cls-5" d="M271.663,238.026l.474.482Z"/>
          <path id="Path_25" data-name="Path 25" class="cls-5" d="M315.974,232.442l.109.093Z"/>
          <path id="Path_26" data-name="Path 26" class="cls-5" d="M259.252,226.99c.119.068.241.142.367.22C259.493,227.131,259.371,227.058,259.252,226.99Z"/>
          <path id="Path_27" data-name="Path 27" class="cls-5" d="M268.13,234.5l.468.457Z"/>
          <path id="Path_28" data-name="Path 28" class="cls-5" d="M262.76,229.567c.16.135.323.274.486.415C263.083,229.841,262.92,229.7,262.76,229.567Z"/>
          <path id="Path_29" data-name="Path 29" class="cls-5" d="M315.548,232.078l.1.082Z"/>
          <path id="Path_30" data-name="Path 30" class="cls-5" d="M263.611,230.3c.2.178.408.358.616.543C264.019,230.655,263.815,230.475,263.611,230.3Z"/>
          <path id="Path_31" data-name="Path 31" class="cls-5" d="M267.013,233.423q.381.366.766.738Q267.4,233.789,267.013,233.423Z"/>
          <path id="Path_32" data-name="Path 32" class="cls-5" d="M266.194,232.647c.159.149.318.3.478.452C266.512,232.948,266.353,232.8,266.194,232.647Z"/>
          <path id="Path_33" data-name="Path 33" class="cls-5" d="M259.822,227.337c.181.117.367.241.559.375C260.189,227.578,260,227.454,259.822,227.337Z"/>
          <path id="Path_34" data-name="Path 34" class="cls-5" d="M260.6,227.868c.143.1.287.207.436.318C260.883,228.075,260.739,227.971,260.6,227.868Z"/>
          <path id="Path_35" data-name="Path 35" class="cls-5" d="M286.376,208.271l-.006,0,.012.009Z"/>
          <path id="Path_36" data-name="Path 36" class="cls-5" d="M285.215,207.462l.058.04Z"/>
          <path id="Path_37" data-name="Path 37" class="cls-5" d="M268.992,235.349l.426.422Z"/>
          <path id="Path_38" data-name="Path 38" class="cls-5" d="M264.579,231.158c.147.132.294.265.442.4C264.873,231.423,264.726,231.29,264.579,231.158Z"/>
          <path id="Path_39" data-name="Path 39" class="cls-5" d="M269.819,236.169l.4.4Z"/>
          <path id="Path_40" data-name="Path 40" class="cls-5" d="M282.2,205.581c.08.044.156.081.239.128C282.356,205.662,282.282,205.625,282.2,205.581Z"/>
          <path id="Path_41" data-name="Path 41" class="cls-5" d="M258.123,226.462a4.205,4.205,0,0,1,.44.169A4.205,4.205,0,0,0,258.123,226.462Z"/>
          <path id="Path_42" data-name="Path 42" class="cls-5" d="M283.115,206.1l.182.109Z"/>
          <path id="Path_43" data-name="Path 43" class="cls-5" d="M284.122,206.735l.124.079Z"/>
          <path id="Path_44" data-name="Path 44" class="cls-5" d="M258.628,226.663c.139.064.284.138.434.219C258.912,226.8,258.767,226.727,258.628,226.663Z"/>
          <path id="Path_45" data-name="Path 45" class="cls-5" d="M281.4,205.187c.093.041.179.075.278.123C281.58,205.262,281.495,205.228,281.4,205.187Z"/>
          <path id="Path_46" data-name="Path 46" class="cls-6" d="M255.892,302.107c-2-12-8-21-19-27-2.322-1.393-2.707-5.592-3.451-10.289-15.665-7.293-33.543-9.676-50.41-14.22-20.109-5.418-41.224-16.175-48.114-35.828-.949-2.71-1.376-6.1-.123-8.462a3.394,3.394,0,0,0-2.354-.044c-47.365,28.266-97.17,4-132.332-30.3v40.149c15.067,5.43,30.816,8.715,46.572,11.467C62.922,230.417,81.5,230.78,97,235.8c10.775,3.49,22.252,14.194,33.626,15.9,1.6.961,3.2,1.906,4.848,2.8,23.608,12.766,48.492,23.942,72.925,35.011,11.675,5.29,23.2,11.19,34.559,17.081,8.039,4.168,16.914,8.025,26.139,6.989a14.549,14.549,0,0,0,9.862-5.54c-.024.023-.047.051-.07.074C270.892,312.107,257.892,309.107,255.892,302.107Zm-30.177-18.67q.741-1.166,1.531-2.3A24.264,24.264,0,0,1,225.715,283.437Z"/>
          <path id="Path_47" data-name="Path 47" class="cls-6" d="M136.139,204.7a7.075,7.075,0,0,0-1.243-1.021c-5.138-3.222-11.33,1.554-16.256,5.092-19.107,13.723-46.967,8.4-67.267.154A146.024,146.024,0,0,1,19.243,190.4c-2.855-2.131-12.736-8.715-19.135-14.53v.1c35.162,34.3,84.967,58.565,132.332,30.3a3.394,3.394,0,0,1,2.354.044A4.948,4.948,0,0,1,136.139,204.7Z"/>
          <path id="Path_48" data-name="Path 48" class="cls-7" d="M227.246,281.133q-.788,1.139-1.531,2.3A24.264,24.264,0,0,0,227.246,281.133Z"/>
          <path id="Path_49" data-name="Path 49" class="cls-6" d="M260.386,227.715c.068.048.14.1.21.153.143.1.287.207.436.318.1.073.2.151.3.228.126.1.254.2.383.3.107.084.214.17.323.258q.2.161.4.329c.108.088.214.176.323.267.16.135.323.274.486.415l.365.315c.2.178.408.358.616.543l.352.318c.147.132.294.265.442.4.12.109.241.22.361.332q.227.208.454.421l.358.335c.159.149.318.3.478.452l.341.324q.381.366.766.738l.351.343.468.457.394.388.426.422.4.4.4.4c.137.137.274.273.409.41.184.185.366.368.547.552l.484.49.474.482.425.434.32.327.442.454.3.31.4.413.323.333,1.688,1.742.115.119.475.488.17.175.462.473.1.1q.269.274.512.519l.069.07c.13.131.255.255.372.372l.129.127.266.259.122.118.224.21.092.085c.092.084.177.159.248.217,5.27,4.344,10.965,8.362,16.416,12.536,6.69,5.122,12.753,10.961,18.9,16.689a56.007,56.007,0,0,0,7.553,6.023,21.064,21.064,0,0,0,16.953-6.179C307.991,277.835,288.093,239.522,260.386,227.715Z"/>
          <path id="Path_50" data-name="Path 50" class="cls-6" d="M286.376,208.271l.006,0c9.173,6.507,25.093,20.316,29.166,23.8l.1.082.33.282.109.093.283.238c5.262,4.354,10.948,8.384,16.391,12.568,2.585,1.988,5.075,4.084,7.513,6.239,5.45,1.178,10.666-1.639,14.235-5.751C328.294,248.378,311.076,217.637,286.376,208.271Z"/>
          <path id="Path_51" data-name="Path 51" class="cls-8" d="M272.368,289.182q-2.327-1.211-4.635-2.583c.088.082.17.169.258.251q1.434,1.352,2.824,2.748c.32.319.646.633.963.955,1.2,1.226,2.378,2.473,3.52,3.757,1.7,1.91,3.446,3.733,5.179,5.584-.064-.217-.135-.435-.215-.655a7.716,7.716,0,0,1,3.132.2,58.5,58.5,0,0,1-6.35-5.565Q274.7,291.531,272.368,289.182Z"/>
          <path id="Path_52" data-name="Path 52" class="cls-8" d="M271.778,290.553c1.2,1.226,2.378,2.473,3.52,3.757,1.7,1.909,3.446,3.732,5.179,5.584-1.733-1.851-3.481-3.674-5.179-5.584C274.156,293.026,272.977,291.779,271.778,290.553Z"/>
          <path id="Path_53" data-name="Path 53" class="cls-8" d="M267.991,286.85c.957.9,1.895,1.82,2.824,2.748Q269.421,288.2,267.991,286.85Z"/>
          <path id="Path_54" data-name="Path 54" class="cls-9" d="M247.548,269.626q.5.409,1.009.816c4.994,4.024,10.029,8.036,14.863,12.266.141.122.28.246.42.369q1.648,1.451,3.256,2.943c.211.2.428.383.637.579q2.31,1.368,4.635,2.583c-4.382-4.386-8.819-8.717-13.612-12.669-5.3-4.368-10.842-8.59-15.951-13.121-.564-.5-1.355-1.289-2.272-2.187-2.137-1.326-4.3-2.583-6.473-3.811C238.852,261.358,243.326,266.2,247.548,269.626Z"/>
          <path id="Path_55" data-name="Path 55" class="cls-8" d="M267.1,286.02q-1.608-1.491-3.256-2.943Q265.49,284.528,267.1,286.02Z"/>
          <path id="Path_56" data-name="Path 56" class="cls-8" d="M263.42,282.708c-4.834-4.23-9.869-8.242-14.863-12.266C253.545,274.477,258.587,278.484,263.42,282.708Z"/>
          <path id="Path_57" data-name="Path 57" class="cls-8" d="M231.144,255.761c2.323,3.75,8.341,7.191,11.449,9.793q2.454,2.055,4.955,4.072c-4.222-3.426-8.7-8.268-13.488-12.232C233.089,256.846,232.122,256.29,231.144,255.761Z"/>
          <path id="Path_58" data-name="Path 58" class="cls-8" d="M240.533,261.2c-2.946-2.881-7.247-6.926-9.952-6.507.009.023.023.045.032.067,1.169.805,2.316,1.694,3.447,2.629C236.234,258.622,238.4,259.879,240.533,261.2Z"/>
          <path id="Path_59" data-name="Path 59" class="cls-8" d="M234.06,257.394c-1.131-.935-2.278-1.824-3.447-2.629a7.688,7.688,0,0,0,.531,1C232.122,256.29,233.089,256.846,234.06,257.394Z"/>
          <path id="Path_60" data-name="Path 60" class="cls-8" d="M295.811,258.391c-5.451-4.174-11.146-8.192-16.416-12.536-.071-.058-.156-.133-.248-.217l-.092-.085-.224-.21-.122-.118c-.084-.08-.172-.167-.266-.259l-.129-.127c-.117-.117-.242-.241-.372-.372l-.069-.07q-.243-.245-.512-.519l-.1-.1c-.149-.152-.3-.309-.462-.473l-.17-.175-.475-.488-.115-.119-1.688-1.742-.323-.333-.4-.413-.3-.31c-.146-.15-.293-.3-.442-.454l-.32-.327c-.141-.145-.282-.289-.425-.434l-.474-.482-.484-.49q-.271-.276-.547-.552l-.409-.41-.4-.4-.4-.4-.426-.422-.394-.388-.468-.457-.351-.343q-.384-.372-.766-.738l-.341-.324c-.16-.151-.319-.3-.478-.452l-.358-.335q-.228-.213-.454-.421c-.12-.112-.241-.223-.361-.332-.148-.136-.295-.269-.442-.4l-.352-.318c-.208-.185-.412-.365-.616-.543l-.365-.315c-.163-.141-.326-.28-.486-.415-.109-.091-.215-.179-.323-.267q-.2-.168-.4-.329c-.109-.088-.216-.174-.323-.258-.129-.1-.257-.2-.383-.3l-.3-.228c-.149-.111-.293-.215-.436-.318-.07-.05-.142-.1-.211-.153l0,0c-.192-.134-.378-.258-.559-.375-.069-.045-.136-.086-.2-.127-.126-.078-.248-.152-.367-.22-.064-.037-.128-.074-.19-.108-.15-.081-.3-.155-.434-.219l-.065-.032a4.205,4.205,0,0,0-.44-.169c-.044-.014-.084-.024-.126-.036a2.29,2.29,0,0,0-.287-.062c-.038-.006-.076-.012-.112-.015a1.229,1.229,0,0,0-.329.008c1.865,4.1,18.492,18.945,21.993,21.667,11.425,8.884,23.682,17.052,33.724,27.553,2.069,2.164,4.206,4.2,6.3,6.312-.1-.455-.21-.912-.345-1.371a21.088,21.088,0,0,0,3.322.585,56.007,56.007,0,0,1-7.553-6.023C308.564,269.352,302.5,263.513,295.811,258.391Z"/>
          <path id="Path_61" data-name="Path 61" class="cls-8" d="M261.032,228.186l.3.228C261.23,228.337,261.13,228.259,261.032,228.186Z"/>
          <path id="Path_62" data-name="Path 62" class="cls-8" d="M261.713,228.713c.107.084.214.17.323.258C261.927,228.883,261.82,228.8,261.713,228.713Z"/>
          <path id="Path_63" data-name="Path 63" class="cls-8" d="M264.227,230.84l.352.318Z"/>
          <path id="Path_64" data-name="Path 64" class="cls-8" d="M276.8,243.3c.159.164.313.321.462.473Z"/>
          <path id="Path_65" data-name="Path 65" class="cls-8" d="M273.626,240.033l.4.413Z"/>
          <path id="Path_66" data-name="Path 66" class="cls-8" d="M271.179,237.536l.484.49Z"/>
          <path id="Path_67" data-name="Path 67" class="cls-8" d="M274.351,240.779l1.688,1.742Z"/>
          <path id="Path_68" data-name="Path 68" class="cls-8" d="M272.137,238.508c.143.145.284.289.425.434Z"/>
          <path id="Path_69" data-name="Path 69" class="cls-8" d="M272.882,239.269c.149.152.3.3.442.454Z"/>
          <path id="Path_70" data-name="Path 70" class="cls-8" d="M276.154,242.64l.475.488Z"/>
          <path id="Path_71" data-name="Path 71" class="cls-8" d="M278.314,244.839c-.117-.117-.242-.241-.372-.372C278.072,244.6,278.2,244.722,278.314,244.839Z"/>
          <path id="Path_72" data-name="Path 72" class="cls-8" d="M279.147,245.638c.092.084.177.159.248.217C279.324,245.8,279.239,245.722,279.147,245.638Z"/>
          <path id="Path_73" data-name="Path 73" class="cls-8" d="M260.6,227.868c-.07-.05-.142-.1-.21-.153h0C260.454,227.763,260.526,227.818,260.6,227.868Z"/>
          <path id="Path_74" data-name="Path 74" class="cls-8" d="M277.361,243.878q.269.274.512.519Q277.63,244.152,277.361,243.878Z"/>
          <path id="Path_75" data-name="Path 75" class="cls-8" d="M278.443,244.966c.094.092.182.179.266.259Z"/>
          <path id="Path_76" data-name="Path 76" class="cls-8" d="M278.831,245.343l.224.21Z"/>
          <path id="Path_77" data-name="Path 77" class="cls-8" d="M268.6,234.961l.394.388Z"/>
          <path id="Path_78" data-name="Path 78" class="cls-8" d="M262.437,229.3c.108.088.214.176.323.267C262.651,229.476,262.545,229.388,262.437,229.3Z"/>
          <path id="Path_79" data-name="Path 79" class="cls-8" d="M265.021,231.559c.12.109.241.22.361.332C265.262,231.779,265.141,231.668,265.021,231.559Z"/>
          <path id="Path_80" data-name="Path 80" class="cls-8" d="M265.836,232.312l.358.335Z"/>
          <path id="Path_81" data-name="Path 81" class="cls-8" d="M267.779,234.161l.351.343Z"/>
          <path id="Path_82" data-name="Path 82" class="cls-8" d="M269.418,235.771l.4.4Z"/>
          <path id="Path_83" data-name="Path 83" class="cls-8" d="M270.223,236.574l.409.41C270.5,236.847,270.36,236.711,270.223,236.574Z"/>
          <path id="Path_84" data-name="Path 84" class="cls-8" d="M263.246,229.982l.365.315Z"/>
          <path id="Path_85" data-name="Path 85" class="cls-8" d="M266.672,233.1l.341.324Z"/>
          <path id="Path_86" data-name="Path 86" class="cls-8" d="M260.386,227.715l0,0,0,0Z"/>
          <path id="Path_87" data-name="Path 87" class="cls-8" d="M257.6,226.349c.036,0,.074.009.112.015C257.672,226.358,257.634,226.352,257.6,226.349Z"/>
          <path id="Path_88" data-name="Path 88" class="cls-8" d="M258.563,226.631l.065.032Z"/>
          <path id="Path_89" data-name="Path 89" class="cls-8" d="M259.619,227.21c.067.041.134.082.2.127C259.753,227.292,259.686,227.251,259.619,227.21Z"/>
          <path id="Path_90" data-name="Path 90" class="cls-8" d="M258,226.426c.042.012.082.022.126.036C258.079,226.448,258.039,226.438,258,226.426Z"/>
          <path id="Path_91" data-name="Path 91" class="cls-8" d="M259.062,226.882c.062.034.126.071.19.108C259.188,226.953,259.124,226.916,259.062,226.882Z"/>
          <path id="Path_92" data-name="Path 92" class="cls-8" d="M316.366,232.773l-.283-.238-.109-.093-.33-.282-.1-.082c-4.066-3.48-19.99-17.294-29.166-23.8l-.012-.009q-.565-.4-1.1-.764l-.058-.04c-.335-.228-.658-.445-.969-.648l-.124-.079c-.286-.186-.562-.361-.825-.522l-.182-.109c-.234-.141-.462-.276-.675-.4-.083-.047-.159-.084-.239-.128-.18-.1-.359-.193-.521-.271-.1-.048-.185-.082-.278-.123-.127-.057-.259-.118-.373-.16s-.206-.064-.3-.091c-.074-.021-.158-.052-.224-.064a1.133,1.133,0,0,0-.4-.015c1.857,4.1,32.63,27.356,36.125,30.085,8.647,6.751,17.771,13.1,26.046,20.351a21.193,21.193,0,0,0-2.7-3.87c.231.064.461.107.691.157-2.438-2.155-4.928-4.251-7.513-6.239C327.314,241.157,321.628,237.127,316.366,232.773Z"/>
          <path id="Path_93" data-name="Path 93" class="cls-8" d="M281.68,205.31c.162.078.341.174.521.271C282.021,205.485,281.842,205.388,281.68,205.31Z"/>
          <path id="Path_94" data-name="Path 94" class="cls-8" d="M283.3,206.213c.263.161.539.336.825.522C283.837,206.55,283.56,206.374,283.3,206.213Z"/>
          <path id="Path_95" data-name="Path 95" class="cls-8" d="M284.246,206.814c.311.2.634.42.969.648C284.88,207.234,284.556,207.017,284.246,206.814Z"/>
          <path id="Path_96" data-name="Path 96" class="cls-8" d="M282.44,205.709c.213.119.441.254.675.4C282.882,205.964,282.653,205.828,282.44,205.709Z"/>
          <path id="Path_97" data-name="Path 97" class="cls-8" d="M285.273,207.5q.531.363,1.1.764Q285.8,207.865,285.273,207.5Z"/>
          <path id="Path_98" data-name="Path 98" class="cls-8" d="M280.5,204.872c.066.012.15.043.224.064C280.65,204.915,280.566,204.884,280.5,204.872Z"/>
          <path id="Path_99" data-name="Path 99" class="cls-8" d="M281.029,205.027c.114.042.246.1.373.16C281.275,205.131,281.143,205.069,281.029,205.027Z"/>
          <path id="Path_100" data-name="Path 100" class="cls-8" d="M315.644,232.16l.33.282Z"/>
          <path id="Path_101" data-name="Path 101" class="cls-8" d="M286.382,208.275c9.176,6.509,25.1,20.323,29.166,23.8C311.475,228.591,295.555,214.782,286.382,208.275Z"/>
          <path id="Path_102" data-name="Path 102" class="cls-8" d="M316.083,232.535l.283.238Z"/>
          <path id="Path_103" data-name="Path 103" class="cls-7" d="M255.444,142.1l.326.083.1.025a77.169,77.169,0,0,1,8.542,2.663,52.639,52.639,0,0,0-5.236-1.915A27.07,27.07,0,0,0,255.444,142.1Z"/>
          <path id="Path_104" data-name="Path 104" class="cls-6" d="M220.02,161.413c-8.205,7.058-17.4,15.226-27.7,18.525-.193.388-.368.783-.55,1.174,16.448,1.483,32.6-8.547,44.4-23.144l-1.543-9.441C229.609,152.34,224.945,157.176,220.02,161.413Z"/>
          <path id="Path_105" data-name="Path 105" class="cls-7" d="M234.622,148.527l1.543,9.441c1.14-1.411,2.245-2.86,3.3-4.35,3.369-5.293,8.437-8.645,13.734-11.77l-.024,0C246.032,141.4,240.116,144.349,234.622,148.527Z"/>
          <path id="Path_106" data-name="Path 106" class="cls-7" d="M253.2,141.848h0l-.026,0Z"/>
          <path id="Path_107" data-name="Path 107" class="cls-7" d="M276.439,151.943c-.321-.319-.644-.636-.972-.947q-1.329-.9-2.693-1.745C274,150.126,275.222,151.019,276.439,151.943Z"/>
          <path id="Path_108" data-name="Path 108" class="cls-7" d="M185,174.83c-3.852-.664-7.721-2.192-11.483-1.189a8.078,8.078,0,0,0-1.216.44A34.574,34.574,0,0,0,185,174.83Z"/>
          <path id="Path_109" data-name="Path 109" class="cls-7" d="M189.174,180.778c.865.142,1.73.256,2.594.334.182-.391.357-.786.55-1.174Q190.763,180.436,189.174,180.778Z"/>
          <path id="Path_110" data-name="Path 110" class="cls-6" d="M185.371,181.345a27.258,27.258,0,0,1-9.645-.94c-.265-.074-.5-.159-.751-.238a14.121,14.121,0,0,1-5.9-3.231c-.089.159-.181.316-.255.485a6.751,6.751,0,0,0-.342,4.228,9.346,9.346,0,0,0,6.211,6.358,14.755,14.755,0,0,0,3.815.728c1.1-1.287,2.112-2.469,3.019-3.472C182.817,183.829,184.093,182.535,185.371,181.345Z"/>
          <path id="Path_111" data-name="Path 111" class="cls-7" d="M253.464,141.888c-.089-.015-.177-.026-.265-.04-5.3,3.125-10.365,6.477-13.734,11.77-1.055,1.49-2.16,2.939-3.3,4.35l.091.557q.393-.4.789-.8c.834-1.1,1.647-2.212,2.42-3.353C242.89,148.739,248.07,145.205,253.464,141.888Z"/>
          <path id="Path_112" data-name="Path 112" class="cls-7" d="M191.768,181.112c-.163.35-.335.7-.49,1.05a52.863,52.863,0,0,0-2.035,5.575,77.936,77.936,0,0,0,32.629-14.812c5.105-3.9,9.565-9.465,14.384-14.4l-.091-.557C224.366,172.565,208.216,182.6,191.768,181.112Z"/>
          <path id="Path_113" data-name="Path 113" class="cls-7" d="M236.256,158.525l.032.2c.259-.329.505-.667.757-1Q236.649,158.121,236.256,158.525Z"/>
          <path id="Path_114" data-name="Path 114" class="cls-7" d="M259.76,147.229c-.406-.2-.807-.4-1.214-.589.408.192.81.4,1.216.59Z"/>
          <path id="Path_115" data-name="Path 115" class="cls-7" d="M255.869,142.21l-.1-.025Z"/>
          <path id="Path_116" data-name="Path 116" class="cls-6" d="M255.356,142.089c-.73-.113-1.45-.2-2.155-.242h0c.088.014.176.025.265.04-5.394,3.317-10.574,6.851-14,12.483-.773,1.141-1.586,2.255-2.42,3.353,5.083-5.082,10.618-9.344,17.755-10.17a19.283,19.283,0,0,1,4.416.022c-.222-.312-.449-.625-.67-.936C257.466,145.117,256.4,143.6,255.356,142.089Z"/>
          <path id="Path_117" data-name="Path 117" class="cls-6" d="M191.768,181.112c-.864-.078-1.729-.192-2.594-.334a29.381,29.381,0,0,1-3.8.567c-1.278,1.19-2.554,2.484-3.849,3.918-.907,1-1.919,2.185-3.019,3.472a30.054,30.054,0,0,0,5.175-.171c1.866-.2,3.721-.478,5.565-.827a52.863,52.863,0,0,1,2.035-5.575C191.433,181.809,191.6,181.462,191.768,181.112Z"/>
          <path id="Path_118" data-name="Path 118" class="cls-10" d="M195.511,174.12c6.578-1.911,12.769-6.221,18.358-10.566q10.488-8.157,20.424-17.045l-.394-2.41c3.1.825,5.544-2.57,8.155-4.505,5.015-3.716,11.98-2.125,17.583.514A60.384,60.384,0,0,1,275.467,151a119.142,119.142,0,0,1,16.318,13.768c.642.575,1.286,1.135,1.927,1.716h0c-11.353-13.286-23.707-25.781-39.82-32.373-25-9-35,20-51,33a34.241,34.241,0,0,1-5.431,3.684q-.822,1.405-1.648,2.808C195.711,173.772,195.612,173.947,195.511,174.12Z"/>
          <path id="Path_119" data-name="Path 119" class="cls-4" d="M172.3,174.081a33.67,33.67,0,0,1-5.314-1.787,7.011,7.011,0,0,0,.615,2.55,18.015,18.015,0,0,0,2.227,1.027A7.3,7.3,0,0,1,172.3,174.081Z"/>
          <path id="Path_120" data-name="Path 120" class="cls-4" d="M185.812,174.955a22.827,22.827,0,0,0,8.846-.606c.4-.233.783-.48,1.155-.75q.823-1.4,1.648-2.808A34.938,34.938,0,0,1,185,174.83C185.273,174.876,185.543,174.919,185.812,174.955Z"/>
          <path id="Path_121" data-name="Path 121" class="cls-4" d="M195.813,173.6c-.372.27-.759.517-1.155.75.285-.073.569-.146.853-.229C195.612,173.947,195.711,173.772,195.813,173.6Z"/>
          <path id="Path_122" data-name="Path 122" class="cls-4" d="M167.606,174.844a7.193,7.193,0,0,0,1.468,2.092,6.14,6.14,0,0,1,.759-1.065A18.015,18.015,0,0,1,167.606,174.844Z"/>
          <path id="Path_123" data-name="Path 123" class="cls-4" d="M220.02,161.413c4.925-4.237,9.589-9.073,14.6-12.886l-.329-2.018q-9.949,8.863-20.424,17.045c-5.589,4.345-11.78,8.655-18.358,10.566-1.122,1.92-2.217,3.848-3.193,5.818C202.615,176.639,211.815,168.471,220.02,161.413Z"/>
          <path id="Path_124" data-name="Path 124" class="cls-4" d="M253.175,141.844l.026,0,.263-.158c.636.105,1.263.242,1.89.4l-.005-.007.1.024a27.07,27.07,0,0,1,3.731.856,52.639,52.639,0,0,1,5.236,1.915c.272.111.534.222.773.333,3.328,1.537,3.55,1.182,6.708,3.4.3.208.587.433.882.644q1.364.843,2.693,1.745a60.384,60.384,0,0,0-15.83-10.888c-5.6-2.639-12.568-4.23-17.583-.514-2.611,1.935-5.054,5.33-8.155,4.505l.394,2.41.027-.025C239.548,141.825,246.31,140.72,253.175,141.844Z"/>
          <path id="Path_125" data-name="Path 125" class="cls-4" d="M253.175,141.844c-6.865-1.124-13.627-.019-18.855,4.64l-.027.025.329,2.018C240.116,144.349,246.032,141.4,253.175,141.844Z"/>
          <path id="Path_126" data-name="Path 126" class="cls-4" d="M169.833,175.871a30.672,30.672,0,0,0,6.564,1.637c5.684,0,12.944-.015,18.261-3.159a22.827,22.827,0,0,1-8.846.606c-.269-.036-.539-.079-.808-.125a34.574,34.574,0,0,1-12.7-.749A7.3,7.3,0,0,0,169.833,175.871Z"/>
          <path id="Path_127" data-name="Path 127" class="cls-10" d="M175.726,180.4a27.258,27.258,0,0,0,9.645.94c.4-.371.8-.734,1.195-1.085.869.21,1.739.374,2.608.518q1.589-.342,3.144-.84c.976-1.97,2.071-3.9,3.193-5.818-.284.083-.568.156-.853.229-5.317,3.144-12.577,3.159-18.261,3.159a30.672,30.672,0,0,1-6.564-1.637,6.14,6.14,0,0,0-.759,1.065,14.121,14.121,0,0,0,5.9,3.231C175.227,180.246,175.461,180.331,175.726,180.4Z"/>
          <path id="Path_128" data-name="Path 128" class="cls-4" d="M253.464,141.689l-.263.158c.705.044,1.425.129,2.155.242l0,0C254.727,141.931,254.1,141.794,253.464,141.689Z"/>
          <path id="Path_129" data-name="Path 129" class="cls-4" d="M185.371,181.345a29.381,29.381,0,0,0,3.8-.567c-.869-.144-1.739-.308-2.608-.518C186.167,180.611,185.769,180.974,185.371,181.345Z"/>
          <path id="Path_130" data-name="Path 130" class="cls-4" d="M357.035,223.611c1.333-.42,2.792-.909,4.444-1.489-2.6-.415-1.177-2.211-3.587-3.015-12.045-6.882-18.157-19.686-13.265-32.043-3.463,4.537-7.042,8.108-7.735,15.043-.174.833-.3,1.655-.4,2.465,1.439,1.088,2.923,2.184,4.415,3.3C347.215,212.568,353.616,217.572,357.035,223.611Z"/>
          <path id="Path_131" data-name="Path 131" class="cls-7" d="M280.472,156.336c-.264-.124-.528-.255-.792-.383a89.876,89.876,0,0,1,8.6,5.687c-3.917-3.415-7.857-6.674-11.838-9.7C277.846,153.342,279.2,154.8,280.472,156.336Z"/>
          <path id="Path_132" data-name="Path 132" class="cls-7" d="M266.554,149.613q1.733.675,3.421,1.415c-1.163-.555-2.332-1.078-3.51-1.543Z"/>
          <path id="Path_133" data-name="Path 133" class="cls-7" d="M263.211,148.372c1.128.393,2.24.811,3.343,1.241l-.089-.128C265.388,149.06,264.3,148.683,263.211,148.372Z"/>
          <path id="Path_134" data-name="Path 134" class="cls-7" d="M255.394,142.094c.126.031.251.058.376.091l-.326-.083Z"/>
          <path id="Path_135" data-name="Path 135" class="cls-7" d="M276.439,151.943c-1.217-.924-2.439-1.817-3.665-2.692a62.166,62.166,0,0,0-8.363-4.378,77.169,77.169,0,0,0-8.542-2.663,50.454,50.454,0,0,1,7.511,2.827q1.533,2.22,3.085,4.448c1.178.465,2.347.988,3.51,1.543a91.876,91.876,0,0,1,9.7,4.925c.264.128.528.259.792.383C279.2,154.8,277.846,153.342,276.439,151.943Z"/>
          <path id="Path_136" data-name="Path 136" class="cls-6" d="M263.38,145.037a50.454,50.454,0,0,0-7.511-2.827l-.1-.025c-.125-.033-.25-.06-.376-.091l-.038,0c1.042,1.509,2.11,3.028,3.19,4.551.407.192.808.394,1.214.589,1.164.359,2.312.745,3.451,1.143,1.093.311,2.177.688,3.254,1.113Q264.916,147.259,263.38,145.037Z" transform="matrix(0.998, -0.07, 0.07, 0.998, -9.297, 18.693)"/>
          <path id="Path_137" data-name="Path 137" class="cls-7" d="M255.349,142.078l.005.007.04.009.05.008Z"/>
          <path id="Path_138" data-name="Path 138" class="cls-7" d="M265.184,145.206c-.239-.111-.5-.222-.773-.333a62.166,62.166,0,0,1,8.363,4.378c-.295-.211-.587-.436-.882-.644C268.734,146.388,268.512,146.743,265.184,145.206Z"/>
          <path id="Path_139" data-name="Path 139" class="cls-7" d="M255.356,142.089l.038,0-.04-.009Z"/>
          <path id="Path_140" data-name="Path 140" class="cls-6" d="M272.368,289.182q2.341,2.343,4.676,4.694a58.5,58.5,0,0,0,6.35,5.565c1.9.5,3.65,1.546,5.61,2.278,5.816,2.172,11.613,2.964,17.708.91,7.6-2.563,12.723-8.993,12.964-16.465C301.664,299.071,286.725,296.649,272.368,289.182Z"/>
          <path id="Path_141" data-name="Path 141" class="cls-7" d="M271.955,285.488A201.123,201.123,0,0,0,240.533,261.2c.917.9,1.708,1.686,2.272,2.187,5.109,4.531,10.655,8.753,15.951,13.121,4.793,3.952,9.23,8.283,13.612,12.669,14.357,7.467,29.3,9.889,47.308-3.018C303.682,293.266,285.462,296.744,271.955,285.488Z"/>
          <path id="Path_142" data-name="Path 142" class="cls-11" d="M357.471,224.4c-.137-.266-.288-.527-.436-.789-3.419-6.039-9.82-11.043-16.124-15.742-1.492-1.113-2.976-2.209-4.415-3.3-.31-.235-.62-.469-.925-.7-12.1-9.275-23.646-20.506-35.2-31.265-.377-.089-.755-.179-1.146-.266.364.081.734.146,1.1.223q-3.3-3.075-6.611-6.08h0c-.641-.581-1.285-1.141-1.927-1.716-1.169-1.047-2.336-2.1-3.508-3.124a89.876,89.876,0,0,0-8.6-5.687,91.876,91.876,0,0,0-9.7-4.925q-1.691-.736-3.421-1.415c-1.1-.43-2.215-.848-3.343-1.241s-2.287-.784-3.451-1.143h0c-.406-.195-.808-.4-1.216-.59.221.311.448.624.67.936a19.283,19.283,0,0,0-4.416-.022c-7.137.826-12.672,5.088-17.755,10.17-.252.333-.5.671-.757,1l-.032-.2c-4.819,4.935-9.279,10.5-14.384,14.4a77.936,77.936,0,0,1-32.629,14.812c-1.844.349-3.7.63-5.565.827a30.054,30.054,0,0,1-5.175.171,14.755,14.755,0,0,1-3.815-.728,9.346,9.346,0,0,1-6.211-6.358,6.751,6.751,0,0,1,.342-4.228c.074-.169.166-.326.255-.485a7.193,7.193,0,0,1-1.468-2.092,7.011,7.011,0,0,1-.615-2.55,33.67,33.67,0,0,0,5.314,1.787,8.078,8.078,0,0,1,1.216-.44c3.762-1,7.631.525,11.483,1.189a34.938,34.938,0,0,0,12.457-4.039c1.194-2.041,2.366-4.1,3.406-6.208,4.132-8.388,7.039-16.921,12.125-24.9,3.977-6.234,8.674-12.155,13.261-18.058,4.831-6.218,9.382-12.49,13.971-18.861,3.754-5.212,2.963-8.115-1.6-9.857a24.371,24.371,0,0,0-3.958-1.08c-6.694-1.315-12.588-1.749-19.332-.382-18.767,3.8-36.333,19.548-52.013,29.64-11.024,7.1-22.757,6.9-35.225,4.429a405.719,405.719,0,0,1-65.093-18.295c-14.083-5.375-27.871-11.438-41.935-16.793C16.2,88.575,6.8,85.919.108,82.456v93.411c6.4,5.815,16.28,12.4,19.135,14.53a146.024,146.024,0,0,0,32.13,18.528c20.3,8.251,48.16,13.569,67.267-.154,4.926-3.538,11.118-8.314,16.256-5.092a7.075,7.075,0,0,1,1.243,1.021,4.948,4.948,0,0,0-1.345,1.608c-1.253,2.367-.826,5.752.123,8.462,6.89,19.653,28,30.41,48.114,35.828,16.867,4.544,34.745,6.927,50.41,14.22.744,4.7,1.129,8.9,3.451,10.289,11,6,17,15,19,27,2,7,15,10,23,6,.023-.023.046-.051.07-.074a9.093,9.093,0,0,0,1.515-8.139c-1.733-1.852-3.481-3.675-5.179-5.584-1.142-1.284-2.32-2.531-3.52-3.757-.317-.323-.643-.635-.963-.955-.929-.928-1.867-1.848-2.824-2.748l-.292-.271.034.02c-.209-.2-.426-.384-.637-.579q-1.609-1.489-3.256-2.943c-.14-.123-.279-.247-.42-.369-4.833-4.224-9.875-8.231-14.863-12.266q-.5-.408-1.009-.816-2.495-2.023-4.955-4.072c-3.108-2.6-9.126-6.043-11.449-9.793a7.688,7.688,0,0,1-.531-1c-.009-.022-.023-.044-.032-.067,2.705-.419,7.006,3.626,9.952,6.507a201.123,201.123,0,0,1,31.422,24.283c13.507,11.256,31.727,7.778,47.721.676a17.721,17.721,0,0,0-.385-4.275c-2.1-2.114-4.236-4.148-6.3-6.312-10.042-10.5-22.3-18.669-33.724-27.553-3.5-2.722-20.128-17.571-21.993-21.667a1.229,1.229,0,0,1,.329-.008c.036,0,.074.009.112.015a2.29,2.29,0,0,1,.287.062c.042.012.082.022.126.036a4.205,4.205,0,0,1,.44.169l.065.032c.139.064.284.138.434.219.062.034.126.071.19.108.119.068.241.141.367.22.067.041.134.082.2.127.181.117.367.241.559.375l0,0c27.707,11.807,47.605,50.12,78.835,47.209,4.941-5.052,6.928-12.464,3.054-19.631-8.275-7.256-17.4-13.6-26.046-20.351-3.495-2.729-34.268-25.986-36.125-30.085a1.11,1.11,0,0,1,.4.015c.066.012.15.043.224.064.1.027.192.049.3.091s.246.1.373.16c.093.041.178.075.278.123.162.078.341.175.521.271.081.044.155.081.239.128.213.119.442.255.675.4l.182.109c.263.161.54.337.825.522l.124.079c.31.2.634.42.969.648l.058.04q.531.363,1.1.764l.006,0c24.7,9.366,41.918,40.107,68.129,37.558.285-.328.563-.662.826-1,.026-.034.049-.071.075-.105a20.356,20.356,0,0,0,2.685-4.739c.056-.14.123-.28.175-.421A18.006,18.006,0,0,0,357.471,224.4Z"/>
          <path id="Path_143" data-name="Path 143" class="cls-3" d="M300.369,172.6l-.046-.043c-.366-.077-.736-.142-1.1-.223C299.614,172.424,299.992,172.514,300.369,172.6Z"/>
        </g>
        <g id="Group_3" data-name="Group 3">
          <path id="Path_144" data-name="Path 144" class="cls-12" d="M183.086,166.041c7.645-2.867,20.067-9.556,16.245-17.2-2.07-4.656-6.389-8.458-11.576-10.676-2.618,3.84-5.23,7.825-8.148,11.967-2.457,3.489-6.667,8.247-9.547,13.027C174,165.863,179.022,167.4,183.086,166.041Z"/>
          <path id="Path_145" data-name="Path 145" class="cls-13" d="M336.5,204.572c1.439,1.088,2.923,2.184,4.415,3.3a31.144,31.144,0,0,1-4.129-5.168C336.665,203.331,336.566,203.955,336.5,204.572Z"/>
          <path id="Path_146" data-name="Path 146" class="cls-4" d="M337.627,191.064a34.062,34.062,0,0,0,4.265-6.957c1-3-4-6-6-6-16.457,3.4-19.906-1.8-35.523-5.5,11.556,10.759,23.107,21.99,35.2,31.265.3.235.615.469.925.7.07-.617.169-1.241.286-1.871C335.031,199.631,335.339,196.842,337.627,191.064Z"/>
          <path id="Path_147" data-name="Path 147" class="cls-3" d="M451.086,74.306q-6.111,2.307-12.2,4.542-8.793,3.243-17.633,6.389c-13.161,4.658-26.423,9.179-39.836,13.028-6.307,1.81-12.644,3.485-19.025,4.93-14.767,3.346-29.476,8.54-44.41,4.588-4.6-1.217-9.118-2.606-13.6-4.089-10.939-3.618-21.64-7.856-32.5-11.959-20.555-7.767-34.965-.156-49.368,11.3-5.356,4.259-10.712,9.046-16.382,13.775-7.839,6.539-13.121,13.65-18.376,21.358,5.187,2.218,9.506,6.02,11.576,10.676,3.822,7.645-8.6,14.334-16.245,17.2-4.064,1.355-9.083-.178-13.026-2.883-1.9,3.156-3.218,6.32-3.069,9.136a34.756,34.756,0,0,0,35.9-5.187c16-13,26-42,51-33,16.113,6.592,28.467,19.087,39.82,32.373q3.309,3,6.611,6.08l.046.043c15.617,3.7,19.066,8.909,35.523,5.5,2,0,7,3,6,6a34.062,34.062,0,0,1-4.265,6.957c-2.288,5.778-2.6,8.567-.845,11.637a31.144,31.144,0,0,0,4.129,5.168c6.578,4.9,13.27,10.134,16.56,16.531,8.168-3.026,24.452-9.747,33.689-13.956.064-.148.13-.275.2-.415,1.27-6.219,5.075-4.6,6.248-11.347.113-.65.225-.325.519-.907a2.771,2.771,0,0,1,.248-.406,5.477,5.477,0,0,1,4.87-2.1c3.655.588,7.334-.819,10.915-1.4,4.048-.657,8.128-1.1,12.157-1.877,10.228-1.961,19.93-5.967,29.179-10.667,4.238-2.154,9.794-4.259,13.32-7.466,3.478-3.165,7.038-6.431,10.222-9.931,9.286-10.206,14-23.19,20.859-34.655V55.155C486.1,61.113,458.219,71.612,451.086,74.306Z"/>
          <path id="Path_148" data-name="Path 148" class="cls-10" d="M400.6,197.682c3.671,13.112-4.151,1.3-9.248,12.347-.023.111-.051.207-.072.324,9.531-3.538,19.29-4.363,29.358-5.162a295.594,295.594,0,0,0,49.622-7.836c6.344-1.619,19.306-4.159,29.629-7.5V137.941C492.7,163.265,478.083,203.1,400.6,197.682Z"/>
          <path id="Path_149" data-name="Path 149" class="cls-4" d="M400.6,197.682c77.48,5.414,92.092-34.417,99.289-59.741V129.27c-6.862,11.465-11.573,24.449-20.859,34.655-3.184,3.5-6.744,6.766-10.222,9.931-3.526,3.207-9.082,5.312-13.32,7.466-9.249,4.7-18.951,8.706-29.179,10.667-4.029.773-8.109,1.22-12.157,1.877-3.581.582-7.26,1.989-10.915,1.4a5.477,5.477,0,0,0-4.87,2.1,2.771,2.771,0,0,0-.248.406c-.294.582-.406.257-.519.907-1.173,6.745-4.978,5.128-6.248,11.347C396.452,198.985,404.274,210.794,400.6,197.682Z"/>
        </g>
        <g id="Group_4" data-name="Group 4">
          <path id="Path_150" data-name="Path 150" class="cls-3" d="M243.56,306.127c10.832-14.815-3.223-31.631-18.477-21.673-3.854,6.355-6.281,13.25-3.774,20.145a17.641,17.641,0,0,0,12.311,9.475A23.98,23.98,0,0,0,243.56,306.127Z"/>
          <path id="Path_151" data-name="Path 151" class="cls-4" d="M221.309,304.6c-2.507-6.895-.08-13.79,3.774-20.145-.113.074-.225.135-.339.211.343-.4.663-.816.971-1.228q.741-1.166,1.531-2.3a21.01,21.01,0,0,0,1.775-3.847c-14.086,11.2-38.87,24.82-49.646,4.575-.039.111-.075.223-.114.334.146.609.17,1.744.475,3.676.117.736.2,1.431.278,2.1.068.128.137.251.2.388-.068-.137-.137-.26-.2-.388.482,4.3.429,7.3,4.119,11.029,9.743,9.841,21.456,4.391,31.443-.753,2.8,5.085-.091,10.637,6.106,14.9,3.786,2.6,8.035,2.5,11.938.933A17.641,17.641,0,0,1,221.309,304.6Z"/>
          <path id="Path_152" data-name="Path 152" class="cls-3" d="M178.123,249.963a16.343,16.343,0,0,0-9.37.115c-8.831,3.128-18.806,15.336-18.179,25.074,1.068,2.9,2.971,5.146,6.05,5.949,12.36,3.226,23.111-3.378,31.19-12.34-.678-5.283.6-12.194-4.006-15.994A15.167,15.167,0,0,0,178.123,249.963Z"/>
          <path id="Path_153" data-name="Path 153" class="cls-3" d="M229.021,277.286c2.935-8.651-1.016-17.315-11.6-20.967-7.371-2.543-14.507-.191-20.6,4.183a26.391,26.391,0,0,0-4.107,4.057c-.67.754-1.381,1.489-1.98,2.3a12.618,12.618,0,0,1-1.655,1.466c-.385.37-.747.766-1.138,1.133-.6.557-1.125,1.161-1.691,1.742a38.446,38.446,0,0,0-2.982,3.513,27.23,27.23,0,0,0-2.625,4.3c-.309.6-.509,1.255-.771,1.878-.311.737-.537.914-.12,1.646a23.6,23.6,0,0,0,1.935,2.9,17.918,17.918,0,0,0,14.572,6.833c6.048-.054,11.961-2.254,17.3-4.934a81.55,81.55,0,0,0,8.269-4.815q1.926-1.272,3.792-2.634.9-.654,1.78-1.328C227.739,278.29,228.886,277.683,229.021,277.286Z"/>
          <path id="Path_154" data-name="Path 154" class="cls-4" d="M181.492,280.154a26.812,26.812,0,0,0,3.633-5.168,37.34,37.34,0,0,0,1.983-4.017c.245-.609.788-1.335.653-2.014-.7.225-1.525,1.5-2.072,2.043q-1.1,1.1-2.264,2.13a43.27,43.27,0,0,1-4.859,3.744,30.419,30.419,0,0,1-10.921,4.613,25.016,25.016,0,0,1-11.022-.384,8.923,8.923,0,0,1-5.927-5.629,11.927,11.927,0,0,0,.5,3.526,9.557,9.557,0,0,0,.8,2.1c1.318,2.393,4.933,3.856,7.342,4.781a16.371,16.371,0,0,0,8.7,1.172,42.2,42.2,0,0,0,5.311-1.4c.794-.259,1.63-.495,2.4-.776a7.334,7.334,0,0,0,1.66-1.106,28.158,28.158,0,0,0,2.863-2.389Q180.9,280.8,181.492,280.154Z"/>
          <path id="Path_155" data-name="Path 155" class="cls-12" d="M194.553,274.976c3.61-7.4,17.781-12.4,23.888-3.064,2.756,4.212,1.957,10.358-2.627,11.9-6.049,2.039-17.486-3.494-20.306-8.84"/>
          <path id="Path_156" data-name="Path 156" class="cls-12" d="M162.236,263.93c2.556-5.238,12.588-8.778,16.912-2.169,1.951,2.981,1.385,7.332-1.86,8.426-4.282,1.444-12.379-2.473-14.375-6.257"/>
          <path id="Path_157" data-name="Path 157" class="cls-12" d="M224.6,295.84c2.556-5.238,12.588-8.778,16.912-2.169,1.951,2.982,1.385,7.332-1.86,8.427-4.282,1.443-12.379-2.473-14.375-6.258"/>
        </g>
      </g>
      <text id="AID" class="cls-14" transform="translate(180 451)"><tspan x="0" y="0">AID</tspan></text>
    </g>
  </g>
</svg>
